<svg viewBox="0 0 50.446249 17.500864">
    <g transform="translate(0,-279.49911)">
      <g transform="translate(0.33129012,-0.51953809)">
        <path d="m 1.3863064,296.58777 c -0.088016,-3.04563 -0.081127,-6.10776 -0.6046142,-9.114 0.17288709,-1.31557 -1.7741669,-2.41895 -0.60461423,-3.66127 0.59297256,-0.40601 1.41344033,-0.48187 2.08994183,-0.20195 0.9731603,0.0398 1.0682197,1.46046 0.5076596,2.03817 -0.1812457,1.2702 0.051014,2.61471 0.277055,3.83757 0.8137356,-0.0887 1.3319804,-1.11853 2.0685051,-1.55899 1.1290952,-1.27098 2.3892813,-2.43572 3.1743435,-3.9693 0.5282781,-0.87466 1.5694628,-1.66227 2.613979,-1.14884 1.03114,0.59927 -0.103018,1.61628 -0.599957,2.13249 -1.7897023,1.37951 -3.1826338,3.18807 -4.6788023,4.86088 0.098745,1.23994 2.0444509,1.30505 2.9111056,1.95942 1.1072621,0.18869 1.8956117,1.09098 2.9782847,1.32138 1.028696,0.51187 2.088607,1.14638 3.280593,0.98534 0.714859,0.57356 0.06882,1.5918 -0.660597,1.8251 -1.725964,0.22316 -3.090602,-1.14589 -4.6241799,-1.69069 -1.7321502,-0.81388 -3.5161212,-1.483 -5.3071695,-2.18342 -0.989962,-0.48485 -1.085555,0.29503 -0.9629042,1.08512 -0.083844,1.041 0.140323,2.05745 0.145555,3.09111 -0.2361513,0.64696 -1.0869379,1.69012 -1.7466631,0.91812 -0.046391,-0.19493 -0.2355463,-0.32318 -0.2575209,-0.52624 z"/>
        <path d="m 14.217565,295.55769 c 0.477093,-0.93805 0.132942,-2.04163 0.39188,-3.04547 -0.275435,-2.30352 -0.255054,-4.62879 -0.29111,-6.94186 -0.21667,-1.34725 -0.145839,-2.73719 -0.503858,-4.05919 -0.266581,-0.87918 0.600571,-1.2627 1.321193,-1.36007 0.795835,0.0183 1.060484,0.87188 0.940515,1.546 -0.17959,2.17882 -0.135454,4.38503 -0.05598,6.57152 0.162996,1.8246 1.258548,-0.94929 1.984049,-1.18765 0.768701,-0.52766 1.956522,-0.36429 2.360215,0.56058 0.795296,1.50739 0.993388,3.2659 1.567531,4.8705 0.04238,1.00217 1.282434,2.31217 0.08124,3.06501 -0.447538,0.492 -1.558018,0.40104 -1.615163,-0.38899 -0.202951,-1.07886 -0.19715,-2.21727 -0.458407,-3.3038 -0.313349,-0.97505 -0.50747,-2.04431 -1.176284,-2.84311 -0.948094,0.31806 -1.798791,1.65193 -1.876808,2.69976 -0.469366,1.43894 -0.184292,2.98353 -0.261751,4.47729 -0.513466,1.30145 -2.373677,1.10699 -2.351271,-0.38069 l -0.05598,-0.27991 z"/>
        <path d="m 28.179674,295.58008 c -0.593642,0.56017 -1.315399,1.32504 -2.228115,1.46675 -1.351248,-0.078 -2.267769,-1.07795 -2.216921,-2.45212 0.02007,-1.4482 -0.174678,-2.98682 0.615801,-4.28828 0.465602,-1.28094 0.911526,-2.7657 2.082569,-3.5717 1.14913,-0.20002 1.826284,0.86582 2.843926,1.09737 0.922752,0.0461 1.058799,1.07726 0.738973,1.74673 -0.127327,1.70974 -0.533916,3.48786 0.13437,5.15041 0.410455,1.02232 1.70934,0.82348 2.474438,0.36946 0.557145,-0.0789 0.902955,0.86619 0.313504,1.11966 -0.966777,0.8664 -2.658559,1.48104 -3.650079,0.29119 -0.512721,-0.13415 -0.637087,-0.95752 -1.108466,-0.92947 z m -3.09025,-1.97059 c -0.07995,0.64351 0.481985,1.72401 1.231622,1.24285 1.306912,-0.75293 1.742748,-2.27495 1.612319,-3.6897 0.133245,-0.91335 -0.267969,-1.96912 -1.108463,-2.34525 -0.866175,0.74848 -1.135206,1.91741 -1.51154,2.95592 -0.132795,0.59884 -0.231759,1.22024 -0.223938,1.83618 z"/>
        <path d="m 33.251716,296.43102 c -0.851338,-1.15496 -0.319961,-2.47801 -0.548632,-3.73965 -0.221218,-3.08589 -0.355937,-6.18516 -0.605572,-9.26389 -0.03966,-0.75165 -0.372091,-1.43947 -0.357332,-2.19622 0.23517,-0.48979 0.774631,-1.1118 1.417658,-0.94568 0.836594,-0.007 1.490811,0.98686 1.000795,1.73551 -0.456558,1.66393 -0.244288,3.43209 -0.20153,5.13922 0.171979,2.2068 0.112586,4.47391 0.761379,6.60597 0.502915,0.6387 0.701703,1.40984 0.481454,2.20572 0.05493,0.76457 -1.625324,1.02476 -1.94822,0.45902 z"/>
        <path d="m 37.629571,295.8376 c -0.01537,-1.76885 -0.294037,-3.52373 -0.548639,-5.25807 0.117453,-0.81335 -0.584176,-1.46694 -0.391884,-2.30047 0.07522,-1.15928 1.801554,-1.85377 2.545219,-0.83218 0.861029,0.83749 -0.158552,1.96375 -0.01479,2.96206 0.02783,1.29117 -0.184262,2.67281 0.548627,3.81631 0.310126,0.78588 0.0021,1.94769 -0.800981,2.2729 -0.562615,0.0205 -1.266028,0.10142 -1.337548,-0.66055 z m -0.638204,-12.31621 c -0.336153,-1.32909 1.407582,-2.51698 2.31769,-1.30993 1.041665,0.55853 0.06797,2.14673 -0.95257,2.0154 -0.510136,-0.006 -1.467555,0.1729 -1.365119,-0.62787 z"/>
        <path d="m 41.828284,295.55769 c 0.203252,-0.6378 0.400406,-1.2959 0.361123,-2.01797 -0.1421,-1.81425 0.142149,-3.65838 -0.316333,-5.45014 -0.206542,-0.78843 0.13424,-1.86974 1.103283,-1.72427 1.111797,0.0222 1.237966,1.02089 0.912089,1.82504 -0.196813,0.65002 0.08185,1.64691 0.470259,0.53744 0.57699,-0.61255 1.047226,-1.81932 1.981795,-1.81387 1.842738,1.26071 2.097341,3.64557 2.485636,5.66548 0.379587,1.02981 0.290354,2.19276 1.109986,3.03144 0.33031,0.97656 -1.19901,1.76753 -1.860151,0.98809 -0.79464,-0.4309 -0.621473,-1.57138 -0.821532,-2.33617 -0.108822,-1.3564 -0.56692,-2.63621 -0.790793,-3.9675 -0.323727,-1.30663 -1.010089,-0.24032 -1.505176,0.20038 -0.617265,0.75908 -0.754039,1.95835 -0.745337,2.95705 0.09406,1.29546 0.243139,3.02428 -1.226454,3.48213 -0.835106,0.19595 -1.180161,-0.70723 -1.158395,-1.37713 z"/>
      </g>
    </g>
  </svg>