<svg viewBox="0 0 19.640286 19.153716">
  <g transform="translate(0,-277.84626)">
    <path d="m 0.13229168,291.79564 c -0.03976422,-1.46493 0.88268382,-2.70561 1.46674932,-3.98597 0.287572,-0.29852 0.6725508,-0.48509 0.940511,-0.80615 0.8442742,-0.0409 1.6817138,-0.1688 2.5145429,-0.2688 0.7636002,-0.0592 1.557494,0.20155 2.0536538,0.80343 0.6899269,0.67637 1.3348066,1.44278 1.6346979,2.37367 0.2436402,1.09675 0.2744535,2.24129 0.2127333,3.36177 -0.3606648,1.0391 -1.343067,1.65588 -2.054568,2.44085 -0.509427,0.33144 -1.0829387,0.62498 -1.6291,0.88458 -1.0247017,0.11806 -2.2237857,0.35325 -3.079054,-0.39185 -0.8135542,-0.53223 -1.54688552,-1.28104 -1.78025221,-2.26179 -0.20625053,-0.68964 -0.28278872,-1.42941 -0.27991401,-2.14974 z m 1.73546682,0.80616 c 0.4011096,0.80423 0.6454672,1.794 1.5311297,2.20013 0.7029648,0.31367 1.5375906,0.19117 2.2449103,-0.006 1.0125802,-0.54496 1.6457988,-1.66583 1.6878809,-2.79633 0.1622041,-0.6316 -0.059621,-1.23648 -0.3383935,-1.79059 -0.2492878,-0.75852 -0.8800699,-1.36529 -1.5526539,-1.73912 -0.4285565,-0.0917 -0.8070669,0.19355 -0.9258333,0.59923 -0.3595604,0.77369 -1.472272,0.43469 -2.0022395,1.01601 -0.354511,0.67406 -0.503527,1.51963 -0.6448011,2.29123 -1e-7,0.075 2e-7,0.15004 4e-7,0.22506 z"/>
    <path d="m 12.829191,289.82505 c -0.61541,-0.0565 -1.20641,0.0835 -1.80059,0.22257 -0.505065,0.14647 -1.1799335,0.0657 -1.4016259,-0.46889 -0.1349264,-0.38933 -0.1697635,-0.78796 -0.145555,-1.19804 0.3768238,-0.72275 1.2383319,-0.52176 1.9023919,-0.54865 0.437728,-0.0447 1.000325,0.14892 1.311021,-0.25752 0.126374,-2.30576 0.20958,-4.62818 0.660609,-6.89708 0.473989,-0.94072 1.060687,-1.83643 1.881025,-2.51923 0.773602,-0.24051 1.588393,-0.11461 2.384867,-0.1456 0.873491,0.36379 1.309217,1.21478 1.682279,2.02377 0.301667,0.41515 0.33431,1.35572 -0.382313,1.30162 -0.810437,-0.32653 -1.226789,-1.28819 -2.071336,-1.58933 -0.394472,0.0136 -0.902442,-0.15403 -1.154444,0.26814 -0.730259,0.73135 -0.711907,1.858 -0.965712,2.80474 -0.32133,1.47159 -0.293574,2.98541 -0.288312,4.48422 0.17854,0.36876 0.568489,0.25694 0.904068,0.26872 0.538386,0 1.076772,0 1.615158,0 0.497913,0.18105 0.753985,0.63195 0.660597,1.13737 -0.157788,0.4597 -0.782507,0.38388 -1.186835,0.45259 -0.601174,0.22048 -1.765838,-0.14715 -1.992988,0.58113 0.01721,1.36383 -0.118951,2.76333 0.380689,4.06553 0.273733,0.70712 0.788572,1.37072 0.671794,2.16862 -0.03521,0.76845 -1.12564,0.77969 -1.721928,0.88817 -0.46256,0.11365 -0.904846,-0.14986 -0.942843,-0.63594 -6e-6,-2.13564 -1.1e-5,-4.27127 -1.7e-5,-6.40691 z"/>
  </g>
</svg>