<svg viewBox="0 0 32.531843 25.317451">
	<g transform="translate(0,-271.68253)">
		<g transform="translate(-0.01934815,-8.4473974)">
			<path d="m 0.1546848,290.72077 c 0.0458501,-1.12136 0.0729556,-2.28883 0.47025528,-3.34777 0.48783132,-1.25617 1.09764542,-2.50766 2.36527332,-3.16022 1.0862582,-0.96014 2.6031454,-1.10666 3.9943729,-1.08338 1.1608071,0.4321 1.7954987,1.57246 2.3960643,2.55287 0.7652424,1.57603 0.4851267,3.34849 0.537434,5.03845 -0.2824544,1.01877 -0.5007113,2.08964 -1.2176263,2.88592 -0.993765,1.46821 -2.3035843,2.90766 -4.1231333,3.2387 -1.0771131,-0.25537 -2.2120713,-0.69485 -2.8269568,-1.67066 -0.93874233,-0.98722 -1.26326561,-2.27122 -1.51730867,-3.56099 -0.11315113,-0.28622 -0.070319,-0.59396 -0.0783747,-0.89292 z m 1.6011081,-0.13435 c 0.2807886,0.94086 0.4710513,1.9788 1.0748687,2.78794 0.4276107,0.81173 1.2564442,1.47148 2.2209337,1.33249 0.8912307,-10e-4 1.6584484,-0.7502 2.0990471,-1.4716 0.3304037,-0.60028 0.9634771,-0.98556 0.9871887,-1.7531 0.1721368,-1.39857 0.3289983,-2.85661 0,-4.2435 -0.1365816,-0.48233 -0.4511554,-1.57525 -1.1313871,-0.99456 -0.7402618,0.45684 -1.4300339,-0.12189 -2.0543297,-0.51477 -0.8655514,-0.36756 -1.545477,0.50752 -2.0206829,1.09511 -0.872763,0.81909 -0.9949018,2.05389 -1.1084588,3.16863 -0.051773,0.19515 -0.080453,0.39105 -0.06718,0.59336 z"W/>
			<path d="m 12.650046,296.43102 c -0.51521,-0.88209 -0.664193,-1.89205 -0.436662,-2.86632 -0.238868,-1.77573 -0.259914,-3.57135 -0.39188,-5.35365 -0.17884,-1.62483 -0.105537,-3.28657 -0.356576,-4.89533 0.0076,-0.68265 -0.340863,-1.29396 -0.326418,-1.97534 0.0037,-0.45993 0.575866,-0.80857 0.899739,-1.0548 0.674669,-0.11192 1.47953,0.18208 1.664274,0.88858 0.01942,0.8799 -0.528749,1.68523 -0.414269,2.59127 -0.05172,2.3836 0.146714,4.75881 0.30231,7.13453 0.182246,1.31358 0.230352,2.71763 1.074885,3.80683 -0.05211,0.6393 0.211705,1.62825 -0.565428,1.88382 -0.415359,0.0392 -1.205937,0.35962 -1.449975,-0.15959 z"W/>
			<path d="m 16.232945,292.34428 c -0.01726,-0.58357 -0.07591,-1.19853 0.380683,-1.6459 0.185124,-1.03242 0.900832,-1.82584 1.44437,-2.68717 0.853183,-0.99438 2.090616,-1.76794 3.445373,-1.62355 0.810696,0.0446 1.15154,0.9496 1.378541,1.6138 0.298875,0.60316 0.105693,1.13139 -0.166148,1.68928 -0.191418,1.0585 -1.227861,1.66114 -1.881026,2.45205 -0.656408,0.79933 -2.646916,0.31573 -2.631192,1.51959 0.231946,1.02716 1.337905,1.62834 2.355291,1.48115 1.060197,0.046 2.120822,-0.0604 3.030254,-0.64946 0.612165,-0.46783 1.109538,0.65287 0.459062,0.88456 -0.615892,0.95067 -1.887257,1.0999 -2.874348,1.42197 -0.808413,-0.0444 -1.646695,0.0977 -2.432821,-0.0896 -0.934911,-0.62552 -2.01694,-1.3254 -2.275705,-2.50243 -0.282654,-0.58107 -0.231909,-1.23526 -0.232334,-1.86429 z m 2.384868,-1.78026 c -0.317956,0.71865 0.510405,0.70316 0.950758,0.39717 0.821352,-0.48076 1.896288,-1.27073 1.622388,-2.35251 -0.289955,-0.65869 -1.235005,-0.28394 -1.576651,0.1303 -0.485131,0.49381 -0.963876,1.10426 -0.996495,1.82504 z"W/>
			<path d="m 23.958572,300.417 c -0.02535,-0.42088 -0.09266,-1.13747 0.526238,-1.05248 0.350149,1.19719 0.774327,2.44046 1.573119,3.45134 0.527839,0.47441 1.191438,0.74691 1.909868,0.64666 0.932541,0.037 1.464758,-0.88995 1.667444,-1.67953 0.575405,-1.63137 0.826199,-3.36102 0.750184,-5.08917 0.0016,-0.66229 0.04841,-1.35961 -0.257528,-1.96467 -0.96809,0.84368 -1.737012,2.06147 -3.038282,2.3849 -0.705354,0.0117 -1.643644,0.12478 -1.976063,-0.66968 -0.579584,-1.07703 -0.505021,-2.40921 -0.313063,-3.5892 0.07711,-1.21539 0.583064,-2.31885 1.131496,-3.38285 0.553041,-1.20414 1.347441,-2.66187 2.661983,-3.10706 0.941011,-0.78859 1.60756,0.45753 2.328614,0.89074 0.75611,0.49127 1.708112,1.21268 1.455824,2.2331 -0.05995,0.96319 -0.651942,1.81047 -0.503847,2.79281 -0.08294,1.83034 0.505945,3.65039 0.13436,5.47025 -0.243799,1.15347 -0.125709,2.37204 -0.548629,3.47094 -0.113589,1.04102 -0.726305,1.94167 -1.220427,2.84392 -0.950297,0.74013 -2.193359,1.57343 -3.459737,1.11969 -0.730783,-0.29432 -1.550359,-0.79381 -1.934471,-1.48832 -0.448915,-1.03795 -0.994632,-2.11612 -0.887083,-3.28139 z m 2.138543,-6.60597 c -0.0026,0.52581 -0.05458,1.51838 0.682991,1.44435 1.065515,0.18675 1.649365,-0.75421 2.255058,-1.43779 0.969166,-0.76778 0.973347,-2.21187 0.486223,-3.26238 -0.322685,-0.58216 -0.623048,-1.17664 -0.827203,-1.81541 -0.633351,-0.26761 -1.15424,0.87501 -1.522212,1.36508 -0.636035,1.1341 -1.040993,2.39647 -1.074857,3.70615 z"/>
		</g>
	</g>
</svg>