<svg viewBox="0 0 106.70037 25.941866">
  <g transform="translate(0,-271.05811)">
    <path d="m 2.1252794,288.88455 c -0.1592596,-2.0943 0.2321083,-4.15053 0.4142731,-6.21409 -0.7761304,-0.0569 -2.07799878,0.54526 -2.40726083,-0.72777 -0.0158311,-1.81786 2.37176393,-0.92078 3.19101933,-1.90349 0.4799848,-1.7805 0.786199,-3.62294 1.097262,-5.41914 0.8098256,-1.09558 2.6739057,-0.16992 1.925809,1.10845 -0.4292682,1.21671 -2.7119837,4.78494 -0.089573,4.09794 1.3751301,-0.909 3.1508953,0.91307 1.1310703,1.26257 -1.2477712,0.4322 -3.3980483,0.31236 -3.2696142,2.16363 -0.1100142,1.61679 -0.798719,3.64285 0.2687176,4.98247 1.6104106,0.68908 2.6529888,-2.71893 4.1651204,-1.34359 -0.4697471,1.62125 -2.2476338,2.65404 -3.7732406,3.23589 -1.196985,0.48231 -2.08625,-0.2321 -2.6535831,-1.24287 z"/>
    <path d="m 9.6605643,288.75019 c 0.8274867,-3.02387 -0.083039,-6.25063 0.123163,-9.37242 -0.071941,-1.80047 -0.3963496,-3.5885 -0.5262377,-5.37345 0.6218536,-1.00827 2.6007234,-0.77368 2.2617084,0.67168 -0.09421,2.49872 -0.324542,5.15529 0.145556,7.55768 0.966329,-0.94076 1.820366,-2.85829 3.482132,-2.10502 1.682002,1.54516 1.527644,4.17721 2.38488,6.1805 0.654902,0.97676 0.649951,2.75929 -0.873327,2.74321 -1.459533,-0.20183 -0.714506,-2.26853 -1.16444,-3.28059 -0.334607,-1.08524 -0.423125,-3.38531 -1.679479,-3.44851 -2.091766,1.78279 -1.732144,4.62183 -1.746663,7.08745 -0.84193,1.4787 -2.3465148,1.01561 -2.4072927,-0.66053 z"/>
    <path d="m 19.155246,285.53678 c -0.05991,-1.61199 0.962659,-3.01989 1.825053,-4.33307 0.90385,-1.2251 3.515325,-2.56498 4.500746,-0.79853 0.625235,0.9593 0.48557,1.92673 0.0484,2.90352 -0.918881,1.65077 -2.586207,2.68414 -4.403594,3.10151 -0.128882,1.85982 2.156017,2.15773 3.560505,1.89225 0.844984,-0.11713 3.293249,-1.33831 2.284103,0.26869 -1.258211,1.49627 -3.494993,1.59291 -5.307169,1.33236 -1.670002,-0.86764 -2.731212,-2.43014 -2.50804,-4.36673 z m 2.384868,-1.78025 c -0.05389,1.44507 2.181827,-0.22111 2.46324,-0.99653 0.752219,-1.10928 -0.82273,-1.82651 -1.466745,-0.82851 -0.4885,0.4918 -0.96299,1.10448 -0.996495,1.82504 z"/>
    <path d="m 33.867527,295.53531 c 0.668199,-2.28485 -0.149807,-4.68412 -0.526239,-6.89708 0.650387,-1.6588 -0.07334,-3.49968 0.111968,-5.23999 -0.224394,-1.4593 -0.74013,-4.07672 1.623497,-3.66133 0.669197,1.51108 2.018921,0.58737 3.22461,0.50374 1.503822,-0.25215 4.392204,-0.19315 4.142732,1.96625 -0.785413,3.38001 -3.636099,6.02437 -6.695543,7.4837 -0.39758,1.96672 0.577191,4.17974 0.660596,6.23649 -0.684894,0.96955 -2.193224,1.45549 -2.474435,-0.2015 l -0.06718,-0.19034 z m 5.083238,-13.54784 c -1.620633,-0.0672 -4.117317,0.74125 -3.616489,2.78413 0.292575,0.85533 -0.705029,3.37228 0.741367,2.95547 1.931493,-1.09318 3.863027,-2.86846 4.341873,-5.07888 -0.164019,-0.60706 -0.95615,-0.64519 -1.466751,-0.66072 z"/>
    <path d="m 43.58614,284.98815 c 0.151272,-1.79047 0.950192,-3.69057 2.407274,-4.79213 1.667174,-0.11096 3.810371,-0.83809 4.937683,0.89573 1.507726,1.44247 1.8042,3.80935 1.321206,5.75503 -1.342255,2.07444 -4.165489,4.11423 -6.605963,2.5529 -1.564938,-0.8908 -2.122799,-2.68706 -2.0602,-4.41153 z m 1.735467,0.80615 c 0.287411,2.00365 2.652389,3.19425 4.288283,1.85864 1.912236,-1.57369 1.439454,-5.01849 -0.794956,-5.99016 -0.919984,0.56686 -1.808752,1.31974 -2.967089,1.72433 -0.157601,0.80625 -0.542063,1.57247 -0.526238,2.40719 z"/>
    <path d="m 54.547575,289.46677 c -0.06933,-2.00093 -0.05968,-3.97397 0.24632,-5.9434 0.20027,-1.40569 -0.806238,-3.117 0.615806,-4.11113 2.014457,-0.90104 1.240101,2.62194 2.177186,1.47719 1.055351,-0.95011 3.326664,-1.28954 3.67861,0.50463 -1.15739,0.81292 -3.274159,0.35635 -3.851621,2.12739 -1.342429,1.60221 -0.852742,3.83496 -0.391889,5.62748 -0.355576,1.01582 -1.852344,1.27321 -2.474412,0.31784 z"/>
    <path d="m 62.810636,288.88455 c -0.159255,-2.0943 0.232099,-4.15053 0.414269,-6.21409 -0.77613,-0.0569 -2.077994,0.54526 -2.407258,-0.72777 -0.01583,-1.81786 2.371767,-0.92078 3.191024,-1.90349 0.479585,-1.78063 0.785953,-3.62302 1.097268,-5.41914 0.809827,-1.09558 2.673899,-0.16992 1.925808,1.10845 -0.429269,1.21671 -2.712002,4.78494 -0.08959,4.09794 1.37513,-0.909 3.150895,0.91307 1.13107,1.26257 -1.247768,0.4322 -3.398053,0.31236 -3.269616,2.16363 -0.111115,1.61877 -0.795083,3.63635 0.268725,4.98247 1.61041,0.68908 2.652989,-2.71893 4.16512,-1.34359 -0.469758,1.62124 -2.247642,2.65404 -3.773251,3.23589 -1.196969,0.48231 -2.086281,-0.2321 -2.653568,-1.24287 z"/>
    <path d="m 72.182158,283.01755 c -1.064646,-0.20724 -2.940001,1.04332 -3.280586,-0.58223 -0.587028,-1.59934 1.482105,-1.49821 2.495315,-1.41079 1.661696,-1.211 0.320564,-4.8785 1.244346,-6.87469 0.566764,-1.58277 1.83198,-3.39283 3.757659,-2.94474 1.461703,-0.0908 2.460381,1.76948 2.411643,3.04547 -1.132141,0.97954 -1.753707,-1.61383 -3.023084,-1.32119 -1.912994,0.47069 -1.576477,3.33831 -1.937007,4.90412 0.02768,1.13879 -0.664593,3.48668 1.288048,2.9335 1.217725,-0.67748 2.860596,1.39964 1.002639,1.55381 -1.69816,-0.19713 -2.854817,0.50331 -2.346677,2.29597 -0.31404,1.77116 1.305968,3.23259 0.974103,4.91725 -0.80158,0.64055 -2.952949,1.0095 -2.586392,-0.65858 -2e-6,-1.95263 -5e-6,-3.90527 -7e-6,-5.8579 z"/>
    <path d="m 77.847619,284.98815 c 0.151258,-1.79048 0.950184,-3.69057 2.407264,-4.79213 1.667174,-0.11096 3.810372,-0.83809 4.937683,0.89573 1.507726,1.44247 1.804199,3.80935 1.321205,5.75503 -1.342254,2.07444 -4.16549,4.11423 -6.605963,2.5529 -1.564931,-0.8908 -2.122813,-2.68706 -2.060189,-4.41153 z m 1.735466,0.80615 c 0.287412,2.00365 2.652389,3.19425 4.288283,1.85864 1.912235,-1.57369 1.439455,-5.01849 -0.79495,-5.99016 -0.919984,0.56686 -1.808751,1.31974 -2.967088,1.72433 -0.157608,0.80625 -0.542049,1.57247 -0.526245,2.40719 z"/>
    <path d="m 89.42486,289.62352 c -0.958988,-1.82339 -0.224502,-3.88163 -0.694182,-5.8446 -0.203702,-3.17281 -0.274898,-6.40276 -0.817354,-9.49468 0.532969,-1.30999 2.770908,-0.94492 2.564012,0.52628 -0.922009,3.08406 -0.153075,6.40449 -0.06717,9.56186 -0.141189,1.53044 0.869495,2.77232 1.030093,4.16073 0.302803,1.18281 -1.283673,1.85311 -2.015399,1.09041 z"/>
    <path d="m 93.802715,289.03011 c -0.138254,-2.36852 -0.309608,-4.79621 -0.940523,-7.03825 -0.431305,-1.64326 2.183947,-2.64021 2.787945,-0.96733 0.22298,1.20858 -0.521152,2.49935 -0.25752,3.78686 -0.387251,1.61406 1.533133,3.17293 0.145564,4.59936 -0.382782,0.52795 -1.716296,0.42857 -1.735466,-0.38064 z m -0.638204,-12.31622 c -0.484327,-1.97985 2.576527,-2.38766 2.731962,-0.57094 0.288465,1.22436 -2.791017,1.99885 -2.731962,0.57094 z"/>
    <path d="m 97.68792,284.98815 c 0.151272,-1.79047 0.950192,-3.69057 2.40727,-4.79213 1.66718,-0.11096 3.81038,-0.8381 4.93768,0.89573 1.50768,1.44246 1.80443,3.80938 1.32125,5.75503 -1.33922,1.98089 -3.87784,3.95764 -6.33734,2.72085 -1.718762,-0.88123 -2.416415,-2.70727 -2.32886,-4.57948 z m 1.735467,0.80615 c 0.287412,2.00365 2.652383,3.19425 4.288283,1.85864 1.91233,-1.57368 1.43956,-5.01846 -0.79488,-5.99016 -0.91998,0.56687 -1.80875,1.31974 -2.967085,1.72433 -0.157665,0.80626 -0.541941,1.57247 -0.526318,2.40719 z"/>
  </g>
</svg>