<svg viewBox="0 0 18.302288 16.387498">
  <g transform="translate(0,-280.61248)">
    <path d="m 2.1252794,295.51291 c 0.029845,-1.1005 -0.068188,-2.20928 0.067179,-3.30299 0.057361,-0.7667 0.2619175,-1.51497 0.3470941,-2.27474 -0.048577,-0.26399 0.1501265,-0.6808 -0.2197328,-0.74623 -0.3948723,0.0211 -0.7722327,0.34224 -1.204077,0.25547 -0.4670982,-0.13534 -1.02748862,-0.50188 -0.98345103,-1.0699 0.0920437,-0.52 0.6192274,-1.13351 1.19886793,-1.0971 0.6625981,-0.13941 1.511038,0.0502 1.9753566,-0.55108 0.2242155,-0.65849 0.2551981,-1.37136 0.4982468,-2.02937 0.1049161,-0.75389 0.3612969,-1.47183 0.3806823,-2.23931 0.058195,-0.60067 0.032312,-1.41064 0.7860334,-1.58164 0.4468318,-0.2131 0.8905243,-0.12368 1.2782909,0.15752 0.3130417,0.26843 0.2488376,0.76593 0.1525954,1.12179 -0.3406826,0.83532 -0.8150103,1.6208 -0.9762014,2.52902 -0.025022,0.59823 -0.8768392,1.51618 -0.221831,1.91602 0.9189064,-0.14206 1.8759109,-0.27888 2.796654,-0.18776 0.3306242,0.0953 0.3824312,0.37427 0.3383829,0.67539 -0.086955,0.49186 -0.6952015,0.55255 -1.0972677,0.66688 -0.7923392,0.22378 -1.6102128,0.37194 -2.3848625,0.64814 -0.7990373,0.31151 -0.6717271,1.35925 -0.7949569,2.06022 -0.2154672,0.94855 -0.1623643,1.93453 -0.25752,2.89991 0.1330923,0.45794 0.1774557,0.93642 0.369486,1.37718 0.4102222,0.41059 0.9959244,0.20352 1.413566,-0.0504 0.6464764,-0.50923 1.2826344,-1.07674 1.9609462,-1.51712 0.3649812,-0.0416 0.7423451,0.0217 0.9816288,0.32798 0.090337,0.53631 -0.5634121,0.94868 -0.755719,1.419 -0.7215005,0.68056 -1.6178936,1.13305 -2.4359795,1.67919 -0.5996343,0.2354 -1.2641659,0.3231 -1.9034145,0.2464 -0.5330685,-0.30047 -1.0025693,-0.80848 -1.309997,-1.33248 z"/>
    <path d="m 9.3246675,291.61651 c -0.050136,-1.40933 0.8342325,-2.60515 1.3855745,-3.84043 0.230545,-0.41785 0.732655,-0.57785 1.021686,-0.9517 0.81957,-0.047 1.635568,-0.149 2.442696,-0.2688 0.725004,-0.0489 1.51361,0.12262 2.002338,0.69427 0.667941,0.55114 1.127837,1.26392 1.578715,1.98179 0.349858,0.78016 0.348587,1.65795 0.414279,2.49618 -0.03499,0.6593 0.139516,1.38334 -0.291103,1.95166 -0.555103,0.71895 -1.254743,1.32532 -1.902386,1.95655 -0.490452,0.23108 -0.951196,0.51053 -1.42299,0.77266 -0.803187,0.1216 -1.657422,0.21668 -2.457643,0.0406 -0.863931,-0.48475 -1.74963,-1.06571 -2.2168615,-1.97518 -0.4250574,-0.89075 -0.558602,-1.87866 -0.554305,-2.85762 z m 1.7354665,0.80615 c 0.379654,0.72791 0.563649,1.58957 1.290403,2.07138 0.694543,0.48549 1.558567,0.28253 2.337283,0.20152 0.922931,-0.43104 1.586855,-1.35967 1.769059,-2.34008 0.12133,-0.70554 0.230832,-1.48673 -0.186458,-2.11687 -0.248227,-0.83129 -0.861557,-1.48883 -1.582595,-1.94748 -0.375255,-0.0612 -0.801282,0.0787 -0.917877,0.47631 -0.132771,0.48896 -0.651974,0.62889 -1.086307,0.72173 -0.510661,0.0862 -1.200961,0.30851 -1.209223,0.94055 -0.123561,0.66563 -0.450746,1.29829 -0.414285,1.99294 z"/>
  </g>
</svg>