<svg viewBox="0 0 69.750513 17.507214">
  <g transform="translate(0,-279.49277)">
    <path d="m 2.3604072,295.2442 c 0.3465489,-1.69954 -0.1037731,-3.49446 -0.4590596,-5.16162 -0.4313993,-2.07718 -0.4049896,-4.35393 -1.60110939,-6.20289 -0.7255824,-1.14222 0.83498169,-2.09595 1.83623589,-1.70194 1.3837312,-0.0368 1.1134935,1.33377 1.1084594,2.24271 0.2992338,2.22347 0.4580645,4.49397 1.0412786,6.66975 0.971068,-1.29081 1.4469862,-2.98674 1.9258078,-4.52341 0.1741008,-1.01263 0.1364511,-2.95623 1.6235052,-2.83277 1.103834,0.2127 1.2975588,1.53912 1.1756388,2.49686 0.2579894,1.9512 0.6772864,3.99774 1.5867031,5.72636 0.981905,-0.39343 0.958736,-2.94872 1.346801,-4.20363 0.187848,-2.08786 0.626213,-4.14126 0.481465,-6.24768 0.184561,-1.11768 2.275281,-1.3131 2.216917,-0.0147 0.03102,1.99809 -0.95856,3.84806 -0.974096,5.85925 -0.352947,2.93045 -0.671137,6.19211 -2.73196,8.4646 -0.9402882,0.58657 -2.0752186,-0.36 -2.0041841,-1.38846 -0.3203758,-1.73535 -1.1966244,-3.33234 -1.399592,-5.10546 -1.3348171,0.54478 -1.4436015,3.27312 -2.0601667,4.72495 -0.100864,1.11324 -0.6281686,2.32753 -1.6329709,2.82153 -0.9936987,0.2231 -1.4663272,-0.78089 -1.4796731,-1.6235 z"/>
    <path d="m 15.885852,291.68369 c -0.222473,-0.85994 0.337366,-1.47436 0.559833,-2.23931 0.831486,-1.84495 2.429776,-3.92573 4.68964,-3.7173 1.122719,0.13246 1.357556,1.50742 1.602837,2.42976 -0.42185,1.12886 -0.836201,2.18925 -1.869834,2.94469 -0.6409,1.21722 -3.184659,0.57545 -2.978285,2.10499 0.67297,1.65333 2.693142,1.29459 4.109136,1.18685 0.638151,-0.5138 2.571296,-1.07194 1.802652,0.29109 -1.018922,1.11449 -2.687013,1.56618 -4.195267,1.45556 -1.353104,0.2022 -2.487036,-0.87122 -3.216872,-1.88105 -0.416895,-0.81011 -0.565982,-1.67419 -0.50384,-2.57528 z m 2.384867,-1.78025 c -0.17216,1.3861 1.853958,-0.0623 2.216916,-0.60465 0.715632,-0.56651 0.46893,-2.121 -0.627004,-1.64588 -0.780209,0.49368 -1.510867,1.28052 -1.589912,2.25053 z"/>
    <path d="m 25.425322,295.77044 c -0.959871,-1.47322 -0.208877,-3.13819 -0.627002,-4.73615 -0.212606,-3.09465 -0.286049,-6.23184 -0.660605,-9.29314 -0.630073,-0.84769 0.02077,-2.13727 1.017162,-2.11615 1.049314,-0.13821 1.747895,1.13412 1.087793,1.98184 -0.445028,2.9472 -0.01203,5.95687 0.16796,8.91246 -0.03667,1.37772 0.581322,2.61964 1.030095,3.81458 0.426256,1.22066 -1.014183,2.3012 -1.975593,1.48434 z"/>
    <path d="m 28.795486,294.02377 c 0.0081,-1.00306 0.52041,-1.94572 0.649404,-2.96709 0.644366,-2.32033 2.665786,-3.78453 4.097941,-5.58708 0.724264,-0.12746 1.836537,0.0335 1.556322,1.02663 -0.799749,1.43096 -2.976698,1.93775 -3.52692,3.76554 -0.517468,0.99626 -1.122557,2.48734 -0.414274,3.51572 0.508776,1.06751 1.822339,0.83461 2.765548,0.61576 0.728851,-0.22014 2.215507,-1.46178 2.44085,-0.23516 -0.712202,1.22928 -2.347932,1.60376 -3.582899,2.11621 -1.580732,0.29361 -3.290511,-0.55114 -3.750848,-2.14983 l -0.08118,-0.0756 -0.15395,-0.0252 z"/>
    <path d="m 37.18171,291.13506 c 0.08578,-1.54748 0.833881,-3.14926 1.83068,-4.29367 0.853849,-0.89474 2.257087,-0.56895 3.396398,-0.76726 1.666678,0.0574 2.697143,1.73227 3.349503,3.06794 0.229248,1.23723 0.477544,2.63102 0.08958,3.85162 -0.999492,1.3519 -2.326157,2.74688 -4.053147,3.02316 -2.291241,0.50296 -4.500071,-1.55696 -4.545808,-3.82925 -0.0557,-0.34848 -0.07571,-0.7002 -0.06721,-1.05254 z m 1.735467,0.80615 c 0.287407,2.00366 2.65239,3.19425 4.288282,1.85864 1.743853,-1.47582 1.51905,-4.39679 -0.279914,-5.72145 -1.008173,-1.00241 -1.2196,0.72586 -2.060167,0.82856 -1.635806,-0.0363 -1.775476,1.67836 -1.948192,2.89822 v 0.002 z"/>
    <path d="m 48.277499,295.5801 c 0.352635,-2.16549 -0.227403,-4.3278 -0.08957,-6.50521 -0.236132,-0.85332 -0.481254,-2.26598 0.714856,-2.45204 1.176233,-0.2109 1.422204,1.3092 1.17737,2.16093 -0.174833,1.30257 -0.163291,2.75946 0.627012,0.77257 1.018576,-0.94511 0.602028,-3.2399 2.138559,-3.39262 1.631396,-0.3462 1.434725,1.91289 1.578724,2.94297 -0.199344,2.1486 0.360385,0.93902 0.929311,-0.52452 0.324415,-1.18702 1.206664,-2.12612 2.138555,-2.87753 1.838832,-0.37508 1.119197,2.26045 1.42196,3.34779 0.145137,2.15365 0.512959,4.29862 1.421992,6.25888 -0.01117,1.41384 -2.471456,1.01689 -2.5305,-0.10078 -0.06507,-2.14428 -0.660933,-4.2146 -0.59344,-6.37084 -0.779189,-0.37956 -1.187598,2.52205 -1.735475,3.32534 -0.380081,0.96282 -0.174085,2.24935 -0.996501,2.97829 -1.997982,0.53926 -1.668089,-2.12745 -1.645903,-3.33485 -0.230899,-1.03051 0.275013,-3.97818 -0.906917,-1.46845 -0.575554,1.20828 -1.668847,2.27735 -1.466751,3.71726 0.128887,0.892 -0.239881,2.23088 -1.409034,2.12735 -0.337567,0.0323 -0.869387,-0.19075 -0.774248,-0.60454 z"/>
    <path d="m 61.523033,291.68369 c -0.222473,-0.85994 0.337366,-1.47436 0.559833,-2.23931 0.831488,-1.84495 2.429777,-3.92573 4.689641,-3.7173 1.122719,0.13246 1.357555,1.50742 1.602837,2.42976 -0.421852,1.12886 -0.836202,2.18925 -1.869836,2.94469 -0.6409,1.21722 -3.184659,0.57545 -2.978285,2.10499 0.672969,1.65333 2.693142,1.29459 4.109136,1.18685 0.63815,-0.5138 2.571296,-1.07194 1.802651,0.29109 -1.018919,1.11449 -2.687006,1.56618 -4.195256,1.45556 -1.353103,0.2022 -2.487036,-0.87122 -3.216871,-1.88105 -0.416894,-0.81011 -0.565978,-1.67419 -0.50385,-2.57528 z m 2.384867,-1.78025 c -0.17216,1.38611 1.853958,-0.0623 2.216915,-0.60465 0.715632,-0.56651 0.468929,-2.121 -0.627004,-1.64588 -0.780208,0.49368 -1.510871,1.28052 -1.589911,2.25053 z"/>
  </g>
</svg>